<?xml version="1.0" encoding="UTF-8" standalone="no"?>
<svg
   xmlns:dc="http://purl.org/dc/elements/1.1/"
   xmlns:cc="http://creativecommons.org/ns#"
   xmlns:rdf="http://www.w3.org/1999/02/22-rdf-syntax-ns#"
   xmlns:svg="http://www.w3.org/2000/svg"
   xmlns="http://www.w3.org/2000/svg"
   xmlns:sodipodi="http://sodipodi.sourceforge.net/DTD/sodipodi-0.dtd"
   xmlns:inkscape="http://www.inkscape.org/namespaces/inkscape"
   width="128"
   height="128"
   style="enable-background:new 0 0 128 128;"
   version="1.1"
   id="svg1179"
   sodipodi:docname="icon.svg"
   inkscape:version="0.92.2 2405546, 2018-03-11">
  <metadata
     id="metadata1185">
    <rdf:RDF>
      <cc:Work
         rdf:about="">
        <dc:format>image/svg+xml</dc:format>
        <dc:type
           rdf:resource="http://purl.org/dc/dcmitype/StillImage" />
      </cc:Work>
    </rdf:RDF>
  </metadata>
  <defs
     id="defs1183" />
  <sodipodi:namedview
     pagecolor="#ffffff"
     bordercolor="#666666"
     borderopacity="1"
     objecttolerance="10"
     gridtolerance="10"
     guidetolerance="10"
     inkscape:pageopacity="0"
     inkscape:pageshadow="2"
     inkscape:window-width="1270"
     inkscape:window-height="932"
     id="namedview1181"
     showgrid="false"
     inkscape:zoom="3.6294465"
     inkscape:cx="61.400503"
     inkscape:cy="63.287465"
     inkscape:window-x="0"
     inkscape:window-y="28"
     inkscape:window-maximized="1"
     inkscape:current-layer="svg1179" />
  <radialGradient
     id="SVGID_1_"
     cx="64.5"
     cy="11.3333"
     gradientUnits="userSpaceOnUse"
     r="130.919"
     gradientTransform="matrix(0.58488273,0,0,0.95454424,26.567508,2.9091687)">
    <stop
       offset="0"
       style="stop-color:#CFD8DC"
       id="stop1020" />
    <stop
       offset="0.1941"
       style="stop-color:#CBD4D9"
       id="stop1022" />
    <stop
       offset="0.4028"
       style="stop-color:#BECACF"
       id="stop1024" />
    <stop
       offset="0.6177"
       style="stop-color:#A8B8C0"
       id="stop1026" />
    <stop
       offset="0.8003"
       style="stop-color:#90A4AE"
       id="stop1028" />
    <stop
       offset="1"
       style="stop-color:#90A4AE"
       id="stop1030" />
  </radialGradient>
  <path
     inkscape:connector-curvature="0"
     d="M 92.074374,121.27265 H 35.925632 c -3.860226,0 -7.018593,-5.15454 -7.018593,-11.45453 V 18.181876 c 0,-6.299992 3.158367,-11.4545303 7.018593,-11.4545303 h 56.148741 c 3.860226,0 7.018588,5.1545383 7.018588,11.4545303 v 91.636244 c 0,6.29999 -3.158362,11.45453 -7.018587,11.45453 z"
     style="fill:url(#SVGID_1_);stroke-width:0.74719238"
     id="path1033" />
  <g
     style="opacity:0.2"
     id="g1037"
     transform="matrix(0.58488273,0,0,0.95454424,26.567505,2.9091687)">
    <path
       inkscape:connector-curvature="0"
       d="m 112,7 c 4.96,0 9,4.04 9,9 v 96 c 0,4.96 -4.04,9 -9,9 H 16 c -4.96,0 -9,-4.04 -9,-9 V 16 c 0,-4.96 4.04,-9 9,-9 h 96 m 0,-3 H 16 C 9.4,4 4,9.4 4,16 v 96 c 0,6.6 5.4,12 12,12 h 96 c 6.6,0 12,-5.4 12,-12 V 16 C 124,9.4 118.6,4 112,4 Z"
       style="fill:#424242"
       id="path1035" />
  </g>
  <g
     id="g1169"
     transform="translate(-27.001083,-51.745951)">
    <radialGradient
       id="SVGID_5_"
       cx="91.086502"
       cy="77.275803"
       gradientTransform="matrix(-1,0,0,1,182.173,0)"
       gradientUnits="userSpaceOnUse"
       r="40.176102">
      <stop
         offset="0"
         style="stop-color:#40C4FF"
         id="stop1160" />
      <stop
         offset="1"
         style="stop-color:#0091EA"
         id="stop1162" />
    </radialGradient>
    <path
       inkscape:connector-curvature="0"
       d="m 88.56,94.48 1.01,-1.01 c 0.56,-0.56 0.56,-1.46 0,-2.02 L 78.54,80.42 c 7.85,-6.34 19.39,-5.87 26.69,1.43 7.81,7.81 7.81,20.47 0,28.29 -7.81,7.82 -20.47,7.81 -28.29,0 -7.3,-7.3 -7.77,-18.83 -1.43,-26.69 l 11.03,11.03 c 0.56,0.56 1.46,0.56 2.02,0 z"
       style="fill:url(#SVGID_5_)"
       id="path1165" />
    <path
       inkscape:connector-curvature="0"
       d="m 78.54,80.42 11.03,11.03 c 0.56,0.56 0.56,1.46 0,2.02 l -1.01,1.01 c -0.56,0.56 -1.46,0.56 -2.02,0 L 75.51,83.45 c 0.45,-0.55 0.92,-1.09 1.43,-1.6 0.51,-0.51 1.05,-0.98 1.6,-1.43 z"
       style="fill:#e1f5fe"
       id="path1167" />
  </g>
  <g
     id="g989">
    <g
       transform="translate(-27.001083,-51.745951)"
       id="g1115">
      <path
         id="path1105"
         style="fill:#eceff1"
         d="m 116.31,83.31 c 0.13,-0.49 0.06,-1 -0.19,-1.43 -0.26,-0.44 -0.67,-0.76 -1.17,-0.89 -0.49,-0.13 -1.01,-0.06 -1.44,0.2 l -2.13,1.22 c -0.44,0.25 -0.76,0.66 -0.89,1.15 -0.13,0.49 -0.06,1 0.19,1.44 0.34,0.59 0.97,0.95 1.65,0.95 0.34,0 0.67,-0.09 0.95,-0.25 l 2.13,-1.22 c 0.45,-0.27 0.77,-0.68 0.9,-1.17 z"
         inkscape:connector-curvature="0" />
      <path
         id="path1107"
         style="fill:#eceff1"
         d="m 105.5,71.31 c -0.91,-0.52 -2.08,-0.21 -2.6,0.69 l -1.23,2.12 c -0.52,0.91 -0.21,2.07 0.7,2.59 0.29,0.17 0.62,0.26 0.95,0.26 0.68,0 1.31,-0.36 1.65,-0.95 l 1.23,-2.12 c 0.52,-0.91 0.21,-2.07 -0.7,-2.59 z"
         inkscape:connector-curvature="0" />
      <path
         id="path1109"
         style="fill:#eceff1"
         d="m 79.1,72.01 c -0.25,-0.44 -0.66,-0.76 -1.16,-0.89 -0.49,-0.13 -1.01,-0.06 -1.44,0.19 -0.44,0.25 -0.76,0.66 -0.89,1.15 -0.13,0.49 -0.06,1 0.19,1.44 l 1.23,2.12 c 0.34,0.59 0.97,0.95 1.65,0.95 0.33,0 0.66,-0.09 0.95,-0.25 0.44,-0.25 0.76,-0.66 0.89,-1.15 0.13,-0.49 0.06,-1 -0.19,-1.44 z"
         inkscape:connector-curvature="0" />
      <path
         id="path1111"
         style="fill:#eceff1"
         d="m 70.62,82.4 -2.14,-1.23 c -0.91,-0.52 -2.08,-0.21 -2.6,0.7 -0.52,0.91 -0.21,2.07 0.7,2.59 l 2.13,1.22 c 0.29,0.17 0.62,0.26 0.96,0.26 0.68,0 1.31,-0.36 1.65,-0.95 0.52,-0.9 0.21,-2.06 -0.7,-2.59 z"
         inkscape:connector-curvature="0" />
      <path
         id="path1113"
         style="fill:#eceff1"
         d="m 91,67.44 c -1.05,0 -1.91,0.85 -1.91,1.9 v 2.45 c 0,1.05 0.86,1.9 1.91,1.9 1.05,0 1.9,-0.85 1.9,-1.9 v -2.45 c 0.01,-1.05 -0.85,-1.9 -1.9,-1.9 z"
         inkscape:connector-curvature="0" />
    </g>
    <g
       id="g975">
      <path
         id="path1117"
         style="fill:#e2e8ea;fill-opacity:1"
         d="m 81.828917,28.704049 c -0.32,0 -0.65,-0.12 -0.89,-0.37 -0.49,-0.49 -0.49,-1.28 0,-1.77 l 1.78,-1.77 c 0.49,-0.49 1.29,-0.49 1.78,0 0.49,0.49 0.49,1.28 0,1.77 l -1.78,1.77 c -0.24,0.25 -0.57,0.37 -0.89,0.37 z"
         inkscape:connector-curvature="0" />
      <path
         id="path1119"
         style="fill:#e2e8ea;fill-opacity:1"
         d="m 70.528917,22.214049 c -0.11,0 -0.22,-0.02 -0.33,-0.04 -0.67,-0.18 -1.07,-0.87 -0.89,-1.54 l 0.65,-2.42 c 0.18,-0.67 0.88,-1.05 1.55,-0.89 0.67,0.18 1.07,0.87 0.89,1.54 l -0.65,2.42 c -0.16,0.56 -0.67,0.93 -1.22,0.93 z"
         inkscape:connector-curvature="0" />
      <path
         id="path1121"
         style="fill:#e2e8ea;fill-opacity:1"
         d="m 57.468917,22.214049 c -0.56,0 -1.07,-0.37 -1.22,-0.93 l -0.65,-2.42 c -0.18,-0.67 0.22,-1.36 0.89,-1.54 0.68,-0.17 1.36,0.22 1.55,0.89 l 0.65,2.42 c 0.18,0.67 -0.22,1.36 -0.89,1.54 -0.11,0.02 -0.22,0.04 -0.33,0.04 z"
         inkscape:connector-curvature="0" />
      <path
         id="path1123"
         style="fill:#e2e8ea;fill-opacity:1"
         d="m 46.168917,28.704049 c -0.32,0 -0.65,-0.12 -0.89,-0.37 l -1.78,-1.77 c -0.49,-0.49 -0.49,-1.28 0,-1.77 0.49,-0.49 1.29,-0.49 1.78,0 l 1.78,1.77 c 0.49,0.49 0.49,1.28 0,1.77 -0.25,0.25 -0.57,0.37 -0.89,0.37 z"
         inkscape:connector-curvature="0" />
    </g>
    <path
       id="path1177"
       style="opacity:0.2;fill:none;stroke:#424242;stroke-width:3;stroke-miterlimit:10"
       d="m 79.658917,31.704049 c -0.45,-0.55 -0.92,-1.09 -1.43,-1.6 -0.51,-0.51 -1.05,-0.99 -1.6,-1.43 -7.85,-6.34 -19.39,-5.87 -26.69,1.43 -7.81,7.81 -7.81,20.48 0,28.29 7.81,7.81 20.48,7.81 28.29,0 7.3,-7.3 7.77,-18.83 1.43,-26.69 z"
       inkscape:connector-curvature="0" />
  </g>
  <text
     xml:space="preserve"
     style="font-style:normal;font-variant:normal;font-weight:normal;font-stretch:normal;font-size:40px;line-height:1.25;font-family:'Adobe Helvetica';-inkscape-font-specification:'Adobe Helvetica';letter-spacing:0px;word-spacing:0px;fill:#cf0000;fill-opacity:1;stroke:#737373;stroke-opacity:1"
     x="42.45052"
     y="109.40212"
     id="text1214"><tspan
       sodipodi:role="line"
       id="tspan1212"
       x="42.45052"
       y="109.40212"
       style="font-style:normal;font-variant:normal;font-weight:bold;font-stretch:normal;font-size:53.33333206px;font-family:'Times New Roman';-inkscape-font-specification:'Times New Roman,  Bold';stroke:#737373;stroke-opacity:1">G</tspan></text>
</svg>
